#!OML:ASF X:\für Bonn\!DataBase\2005_08_12_Daniel\c3d\Daniel.ASF
:FULLY-SPECIFIED
:DEGREES
173
root 12.885 3.63083 0.558115 -1067.97 -69.2444 -76.8501
lowerback 76.1133 -4.2589 13.4323
upperback 13.7368 0.0570459 -4.13339
thorax -4.58353 -1.08089 -9.88843
lowerneck 4.24993 8.4331 -11.7141
upperneck 7.13881 10.7321 -8.6149
head 1.44045 4.70987 -0.844871
rclavicle -1.11319e-014 1.59028e-014
rhumerus -36.3934 -8.63094 -88.3742
rradius 13.3563
rwrist 60.2599
rhand -25.5931 -337.446
rfingers 7.12502
rthumb 0.938757 -367.424
lclavicle -1.11319e-014 1.59028e-014
lhumerus -740.934 35.9742 -648.839
lradius 18.0396
lwrist -20.3378
lhand -74.6754 450.166
lfingers 7.12502
lthumb -45.9718 292.94
rfemur 274.824 -56.5084 405.339
rtibia 137.369
rfoot 21.1814 33.3897
rtoes 17.1203
lfemur 14.5849 59.6878 48.2484
ltibia 145.29
lfoot 49.6671 -47.02
ltoes 15.3987
174
root 12.9233 3.57266 0.594534 -1066.97 -69.6981 -78.4222
lowerback 76.0182 -4.43813 13.3823
upperback 13.8211 -0.216943 -3.9561
thorax -4.53069 -1.25802 -9.54153
lowerneck 4.29359 8.51323 -11.817
upperneck 7.1336 10.8194 -8.81199
head 1.43891 4.74195 -0.894291
rclavicle -3.97569e-014 2.54444e-014
rhumerus -36.6887 -10.3129 -87.4436
rradius 12.8471
rwrist 62.646
rhand -26.5992 -337.521
rfingers 7.12502
rthumb -0.0330043 -367.5
lclavicle -3.97569e-014 2.54444e-014
lhumerus -741.648 35.8455 -648.615
lradius 17.9362
lwrist -19.0265
lhand -74.6721 451.464
lfingers 7.12502
lthumb -45.9688 291.643
rfemur 275.061 -56.0085 405.278
rtibia 137.176
rfoot 21.8796 33.1934
rtoes 16.5868
lfemur 15.8703 59.7551 49.3427
ltibia 145.145
lfoot 50.006 -46.8421
ltoes 15.1378
175
root 12.9601 3.51298 0.630618 -1066.01 -70.1605 -79.9282
lowerback 75.8892 -4.58084 13.2788
upperback 13.9188 -0.49587 -3.76152
thorax -4.46952 -1.44186 -9.15362
lowerneck 4.35727 8.59416 -11.9117
upperneck 7.10454 10.9024 -9.0632
head 1.43046 4.77307 -0.963173
rclavicle -4.6118e-014 -6.67916e-014
rhumerus -37.0352 -11.952 -86.4345
rradius 12.3713
rwrist 65.0246
rhand -27.6073 -337.668
rfingers 7.12502
rthumb -1.00664 -367.646
lclavicle -4.6118e-014 -6.67916e-014
lhumerus -742.342 35.6394 -648.323
lradius 17.8704
lwrist -17.5847
lhand -74.7446 452.59
lfingers 7.12502
lthumb -46.036 290.489
rfemur 275.236 -55.5347 405.234
rtibia 137.002
rfoot 22.6389 32.9766
rtoes 16.3695
lfemur 17.1105 59.8836 50.3904
ltibia 145.028
lfoot 50.2047 -46.6757
ltoes 14.8707
176
root 12.997 3.45388 0.666437 -1064.98 -70.6301 -81.5006
lowerback 75.7673 -4.69932 13.1504
upperback 14.0131 -0.767431 -3.55215
thorax -4.40979 -1.62721 -8.74264
lowerneck 4.40098 8.68364 -12.0535
upperneck 7.08453 10.997 -9.27858
head 1.42374 4.80791 -1.01343
rclavicle -7.95139e-015 -1.90833e-014
rhumerus -37.5352 -14.6243 -84.6619
rradius 11.7929
rwrist 68.5971
rhand -28.6719 -337.814
rfingers 7.12502
rthumb -2.03482 -367.784
lclavicle -7.95139e-015 -1.90833e-014
lhumerus -743.042 35.4663 -647.987
lradius 17.8507
lwrist -16.1852
lhand -74.8095 453.811
lfingers 7.12502
lthumb -46.0962 289.244
rfemur 275.38 -55.0998 405.264
rtibia 136.839
rfoot 23.1953 32.8863
rtoes 16.0326
lfemur 18.3071 60.0278 51.4544
ltibia 144.948
lfoot 50.2843 -46.5922
ltoes 14.506
177
root 13.035 3.39406 0.700727 -1063.78 -71.1012 -83.2584
lowerback 75.705 -4.81057 13.0358
upperback 14.0788 -1.0162 -3.34911
thorax -4.37035 -1.80393 -8.35291
lowerneck 4.39093 8.74503 -12.1538
upperneck 7.11247 11.0721 -9.50494
head 1.44445 4.82851 -1.06968
rclavicle 3.97569e-015 4.45278e-014
rhumerus -38.221 -17.9806 -82.3443
rradius 11.1467
rwrist 72.9776
rhand -29.7437 -338.015
rfingers 7.12502
rthumb -3.06993 -367.973
lclavicle 3.97569e-015 4.45278e-014
lhumerus -743.705 35.3261 -647.656
lradius 17.8195
lwrist -14.7664
lhand -74.8319 454.097
lfingers 7.12502
lthumb -46.117 288.948
rfemur 275.554 -54.5945 405.355
rtibia 136.653
rfoot 23.7134 32.6916
rtoes 15.8192
lfemur 19.4443 60.2012 52.5662
ltibia 144.886
lfoot 50.396 -46.5038
ltoes 14.2284
